STARTFONT 2.1
FONT -Adobe-ITC Bookman-Demi-R-Normal--33-240-100-100-P-198-ISO8859-1
SIZE 24 100 100
FONTBOUNDINGBOX 48 34 -5 -7

STARTPROPERTIES 26
_DEC_DEVICE_FONTNAMES "PS=Bookman-Demi"
FONTNAME_REGISTRY ""
FAMILY_NAME "ITC Bookman"
FOUNDRY "Adobe"
WEIGHT_NAME "Demi"
SLANT "R"
SETWIDTH_NAME "Normal"
ADD_STYLE_NAME ""
PIXEL_SIZE 33
POINT_SIZE 240
RESOLUTION_X 100
RESOLUTION_Y 100
SPACING "P"
AVERAGE_WIDTH 198
CHARSET_REGISTRY "ISO8859"
CHARSET_ENCODING "1"
CHARSET_COLLECTIONS "ASCII ISO8859-1 ADOBE-STANDARD"
FULL_NAME "ITC Bookman Demi"
COPYRIGHT "Copyright (c) 1991 Adobe Systems, Inc."
CAP_HEIGHT 23
X_HEIGHT 17
WEIGHT 10
QUAD_WIDTH 24
DEFAULT_CHAR 0
FONT_DESCENT 7
FONT_ASCENT 27
ENDPROPERTIES

CHARS 190

STARTCHAR space
ENCODING 32
SWIDTH 340 0
DWIDTH 11 0
BBX 1 1 0 0
BITMAP
00
ENDCHAR

STARTCHAR exclam
ENCODING 33
SWIDTH 360 0
DWIDTH 12 0
BBX 6 23 3 0
BITMAP
78
FC
FC
FC
FC
FC
FC
FC
F8
78
78
78
78
78
78
70
00
30
78
FC
FC
FC
78
ENDCHAR

STARTCHAR quotedbl
ENCODING 34
SWIDTH 420 0
DWIDTH 14 0
BBX 12 11 0 12
BITMAP
6060
F0F0
F0F0
F0F0
F0F0
F0F0
70F0
7060
6060
6060
6060
ENDCHAR

STARTCHAR numbersign
ENCODING 35
SWIDTH 660 0
DWIDTH 21 0
BBX 17 23 2 0
BITMAP
071C00
071C00
071C00
071C00
071C00
071C00
7FFF80
7FFF80
7FFF80
0E3800
0E3800
0E3800
0E3800
0E3800
FFFF00
FFFF00
FFFF00
1C7000
1C7000
1C7000
1C7000
1C7000
1C7000
ENDCHAR

STARTCHAR dollar
ENCODING 36
SWIDTH 660 0
DWIDTH 22 0
BBX 18 31 2 -4
BITMAP
00C000
00C000
00C000
00C000
00C000
07F800
1FFE00
3E3F00
780F80
780F80
F80700
FC0200
FF0000
7FF000
7FFE00
3FFF00
0FFF80
01FF80
601FC0
F007C0
F807C0
F807C0
F80F80
FE3F00
3FFE00
0FF800
00C000
00C000
00C000
00C000
00C000
ENDCHAR

STARTCHAR percent
ENCODING 37
SWIDTH 940 0
DWIDTH 31 0
BBX 29 23 0 0
BITMAP
0F800000
3FE00C00
7DF01C00
78F03800
F0783800
F0787000
F0786000
F078E000
F079C000
F079C7C0
78F39FE0
7DF3BCF0
3FE73CF0
0F8E7878
000E7878
001C7878
001C7878
00387878
00707878
007038F0
00E03CF0
00E01FE0
01C00FC0
ENDCHAR

STARTCHAR ampersand
ENCODING 38
SWIDTH 800 0
DWIDTH 27 0
BBX 24 23 0 0
BITMAP
01F000
07FC00
0FFE00
0F9E00
1F9E00
1F9E00
1F9E00
1FFFFF
0FFDFF
07F9FF
0FF878
3FFC78
7FFC70
7C7EF0
FC7FF0
FC3FE0
FC1FE0
FC0FC0
7E07E0
7F1FF8
3FFFFF
1FFCFF
07F01F
ENDCHAR

STARTCHAR quoteright
ENCODING 39
SWIDTH 320 0
DWIDTH 11 0
BBX 5 9 3 14
BITMAP
70
F8
F8
F8
78
30
70
E0
C0
ENDCHAR

STARTCHAR parenleft
ENCODING 40
SWIDTH 320 0
DWIDTH 11 0
BBX 8 30 2 -5
BITMAP
07
1F
3F
7F
7C
F8
F8
F0
F0
F0
F0
F0
F0
F0
F0
F0
F0
F0
F0
F0
F0
F0
F0
F8
F8
7C
7F
3F
1F
07
ENDCHAR

STARTCHAR parenright
ENCODING 41
SWIDTH 320 0
DWIDTH 11 0
BBX 8 30 0 -5
BITMAP
E0
F8
FC
FE
3E
1F
1F
0F
0F
0F
0F
0F
0F
0F
0F
0F
0F
0F
0F
0F
0F
0F
0F
1F
1F
3E
FE
FC
F8
E0
ENDCHAR

STARTCHAR asterisk
ENCODING 42
SWIDTH 460 0
DWIDTH 15 0
BBX 11 13 2 10
BITMAP
0E00
0E00
4E40
E4E0
F5E0
3F80
1F00
3F80
F5E0
E4E0
4E40
0E00
0E00
ENDCHAR

STARTCHAR plus
ENCODING 43
SWIDTH 600 0
DWIDTH 20 0
BBX 16 17 2 0
BITMAP
03C0
03C0
03C0
03C0
03C0
03C0
FFFF
FFFF
FFFF
FFFF
03C0
03C0
03C0
03C0
03C0
03C0
03C0
ENDCHAR

STARTCHAR comma
ENCODING 44
SWIDTH 340 0
DWIDTH 11 0
BBX 5 9 2 -4
BITMAP
70
F8
F8
F8
78
30
70
E0
C0
ENDCHAR

STARTCHAR minus
ENCODING 45
SWIDTH 600 0
DWIDTH 20 0
BBX 16 4 2 7
BITMAP
FFFF
FFFF
FFFF
FFFF
ENDCHAR

STARTCHAR period
ENCODING 46
SWIDTH 340 0
DWIDTH 11 0
BBX 6 6 2 0
BITMAP
78
FC
FC
FC
FC
78
ENDCHAR

STARTCHAR slash
ENCODING 47
SWIDTH 600 0
DWIDTH 19 0
BBX 13 30 3 -6
BITMAP
0078
0078
0078
00F0
00F0
00F0
01E0
01E0
01E0
03C0
03C0
03C0
0780
0780
0780
0F00
0F00
0F00
1E00
1E00
1E00
3C00
3C00
3C00
7800
7800
7800
F000
F000
F000
ENDCHAR

STARTCHAR zero
ENCODING 48
SWIDTH 660 0
DWIDTH 22 0
BBX 19 23 1 0
BITMAP
03F800
0FFE00
1FFF00
3F1F80
3E0F80
7E0FC0
7C07C0
7C07E0
FC07E0
FC07E0
FC07E0
FC07E0
FC07E0
FC07E0
FC07E0
FC07E0
7C07C0
7E0FC0
3E0F80
3F1F80
1FFF00
0FFE00
03F800
ENDCHAR

STARTCHAR one
ENCODING 49
SWIDTH 660 0
DWIDTH 22 0
BBX 14 23 4 0
BITMAP
07C0
FFC0
FFC0
FFC0
0FC0
0FC0
0FC0
0FC0
0FC0
0FC0
0FC0
0FC0
0FC0
0FC0
0FC0
0FC0
0FC0
0FC0
0FC0
0FC0
FFFC
FFFC
FFFC
ENDCHAR

STARTCHAR two
ENCODING 50
SWIDTH 660 0
DWIDTH 22 0
BBX 19 23 1 0
BITMAP
07F800
1FFE00
3FFF80
7C3F80
781FC0
F80FC0
FC0FC0
FC1FC0
781FC0
301FC0
003F80
003F00
007E00
00FC00
03F800
07F0E0
0FC0E0
3F01E0
7FFFE0
FFFFC0
FFFFC0
FFFFC0
7FFF80
ENDCHAR

STARTCHAR three
ENCODING 51
SWIDTH 660 0
DWIDTH 22 0
BBX 19 23 1 0
BITMAP
03F800
1FFE00
3FFF80
7E3F80
7C0FC0
7C0FC0
7C0FC0
7C1FC0
303F80
03FF00
03FE00
03FF80
003FC0
000FE0
000FE0
7807E0
FC07E0
F80FE0
F80FC0
7E3FC0
7FFF80
1FFE00
07F800
ENDCHAR

STARTCHAR four
ENCODING 52
SWIDTH 660 0
DWIDTH 22 0
BBX 19 23 1 0
BITMAP
007E00
007E00
00FE00
01FE00
01FE00
03FE00
07BE00
073E00
0F3E00
1E3E00
3C3E00
3C3E00
783E00
F03E00
FFFFE0
FFFFE0
FFFFE0
003E00
003E00
007F00
01FFC0
01FFC0
01FFC0
ENDCHAR

STARTCHAR five
ENCODING 53
SWIDTH 660 0
DWIDTH 22 0
BBX 18 24 2 0
BITMAP
000700
7FFF00
7FFF00
7FFF00
7FFF00
7FFF00
700000
700000
73F800
7FFE00
7FFF00
7C7F80
781FC0
701FC0
000FC0
000FC0
780FC0
F80FC0
FC1FC0
F81F80
FC7F80
7FFF00
3FFC00
07F000
ENDCHAR

STARTCHAR six
ENCODING 54
SWIDTH 660 0
DWIDTH 22 0
BBX 19 23 1 0
BITMAP
01FC00
07FF00
1FFF80
3F8FC0
3E07C0
7E07C0
7C0380
7C0000
FCFC00
FFFF00
FFFF80
FF1FC0
FE0FC0
FC07E0
FC07E0
FC07E0
7C07E0
7C07E0
7E0FC0
3F1FC0
1FFF80
0FFF00
03FC00
ENDCHAR

STARTCHAR seven
ENCODING 55
SWIDTH 660 0
DWIDTH 22 0
BBX 19 23 1 0
BITMAP
7FFFE0
7FFFE0
FFFFE0
FFFFE0
F003C0
E00780
E00F80
001F00
001E00
003E00
007C00
00FC00
00F800
01F800
01F000
03F000
03F000
07E000
07E000
0FE000
0FE000
0FE000
0FE000
ENDCHAR

STARTCHAR eight
ENCODING 56
SWIDTH 660 0
DWIDTH 22 0
BBX 19 23 1 0
BITMAP
03F800
0FFF00
1FFF80
3F0FC0
7C07C0
7C03C0
7E03C0
7F07C0
7FEF80
7FFF00
3FFF00
0FFFC0
3FFFC0
7CFFE0
F81FE0
F007E0
F003E0
F803E0
F803E0
7E0FC0
7FFF80
1FFF00
07F800
ENDCHAR

STARTCHAR nine
ENCODING 57
SWIDTH 660 0
DWIDTH 22 0
BBX 19 23 1 0
BITMAP
03F800
0FFE00
3FFF00
3F1F80
7E0FC0
7C07C0
FC07C0
FC07E0
FC07E0
FC07E0
7E0FE0
7F1FE0
3FFFE0
1FFFE0
07F7E0
0007E0
3807C0
7C0FC0
7C0F80
7E3F80
3FFF00
1FFC00
07F000
ENDCHAR

STARTCHAR colon
ENCODING 58
SWIDTH 340 0
DWIDTH 11 0
BBX 6 17 2 0
BITMAP
78
FC
FC
FC
FC
78
00
00
00
00
00
78
7C
FC
FC
FC
78
ENDCHAR

STARTCHAR semicolon
ENCODING 59
SWIDTH 340 0
DWIDTH 11 0
BBX 6 21 2 -4
BITMAP
78
FC
FC
FC
FC
78
00
00
00
00
00
30
78
FC
FC
7C
3C
38
78
70
20
ENDCHAR

STARTCHAR less
ENCODING 60
SWIDTH 600 0
DWIDTH 20 0
BBX 16 19 1 0
BITMAP
0001
0007
001F
007F
01FE
07F8
1FE0
7F80
FE00
F800
FE00
7F80
1FE0
07F8
01FE
007F
001F
0007
0001
ENDCHAR

STARTCHAR equal
ENCODING 61
SWIDTH 600 0
DWIDTH 20 0
BBX 16 10 2 4
BITMAP
FFFF
FFFF
FFFF
FFFF
0000
0000
FFFF
FFFF
FFFF
FFFF
ENDCHAR

STARTCHAR greater
ENCODING 62
SWIDTH 600 0
DWIDTH 20 0
BBX 16 19 2 0
BITMAP
8000
E000
F800
FE00
7F80
1FE0
07F8
01FE
007F
001F
007F
01FE
07F8
1FE0
7F80
FE00
F800
E000
8000
ENDCHAR

STARTCHAR question
ENCODING 63
SWIDTH 660 0
DWIDTH 22 0
BBX 17 23 2 0
BITMAP
07F000
1FFE00
3FFF00
7C3F80
F81F80
F81F80
F81F80
F81F80
F81F80
003F80
007F00
00FE00
00FC00
01F000
01E000
01E000
000000
00C000
01E000
03F000
03F000
03F000
01E000
ENDCHAR

STARTCHAR at
ENCODING 64
SWIDTH 820 0
DWIDTH 27 0
BBX 22 23 2 0
BITMAP
00FE00
03FF80
0FC7E0
1E00F0
380070
307838
70FFDC
61E79C
E3C78C
E7878C
C7870C
C7070C
CF0F1C
EF0F18
EF1E38
671E70
77BFE0
73E798
380038
1E0070
0FC3E0
07FFC0
00FE00
ENDCHAR

STARTCHAR A
ENCODING 65
SWIDTH 720 0
DWIDTH 25 0
BBX 25 23 0 0
BITMAP
003E0000
003E0000
007F0000
007F0000
00FF8000
00FF8000
00EF8000
01EFC000
01CFC000
03C7E000
03C7E000
0387E000
07FFF000
07FFF000
0FFFF800
0F01F800
0F01F800
1E00FC00
1E00FC00
3E00FE00
FFC7FF80
FFC7FF80
FFC7FF80
ENDCHAR

STARTCHAR B
ENCODING 66
SWIDTH 720 0
DWIDTH 23 0
BBX 21 23 1 0
BITMAP
FFFF00
FFFFC0
FFFFE0
3F0FF0
3F03F0
3F03F0
3F03F0
3F03F0
3F07E0
3FFFC0
3FFF80
3FFFE0
3F07F0
3F03F0
3F01F8
3F01F8
3F01F8
3F01F8
3F03F8
3F8FF0
FFFFF0
FFFFE0
FFFF80
ENDCHAR

STARTCHAR C
ENCODING 67
SWIDTH 740 0
DWIDTH 23 0
BBX 22 23 1 0
BITMAP
01FCE0
07FFE0
0FFFE0
1FC7F0
3F01F0
7F00F0
7E0078
FE0038
FC0038
FC0000
FC0000
FC0000
FC0000
FC0000
FE0000
FE0018
7E003C
7F0078
3F80F8
1FE3F0
0FFFE0
07FFC0
01FE00
ENDCHAR

STARTCHAR D
ENCODING 68
SWIDTH 780 0
DWIDTH 26 0
BBX 24 23 1 0
BITMAP
FFFF80
FFFFE0
FFFFF0
1F87F8
1F81FC
1F80FE
1F807E
1F807F
1F807F
1F803F
1F803F
1F803F
1F803F
1F803F
1F807F
1F807F
1F807E
1F80FE
1F81FC
1F87FC
FFFFF8
FFFFE0
FFFF80
ENDCHAR

STARTCHAR E
ENCODING 69
SWIDTH 720 0
DWIDTH 22 0
BBX 21 23 1 0
BITMAP
FFFFC0
FFFFE0
FFFFE0
3F87F0
3F01F0
3F0C70
3F0C30
3F1C30
3F1C00
3FFC00
3FFC00
3FFC00
3F3C00
3F1C00
3F1C18
3F0C38
3F0078
3F00F8
3F01F0
7F07F0
FFFFF0
FFFFE0
FFFFE0
ENDCHAR

STARTCHAR F
ENCODING 70
SWIDTH 680 0
DWIDTH 22 0
BBX 21 23 1 0
BITMAP
FFFFE0
FFFFE0
FFFFF0
3FCFF0
1F81F0
1F8078
1F8638
1F8E38
1F8E00
1F9E00
1FFE00
1FFE00
1FFE00
1F9E00
1F8E00
1F8600
1F8600
1F8000
1F8000
1F8000
FFF000
FFF000
FFF000
ENDCHAR

STARTCHAR G
ENCODING 71
SWIDTH 780 0
DWIDTH 25 0
BBX 24 23 1 0
BITMAP
01FC60
07FFE0
1FFFE0
1FCFF0
3F01F0
7F00F0
7E0078
FE0038
FE0000
FC0000
FC0000
FC07FF
FC07FF
FC07FF
FC01FC
FE00F8
7E00F8
7F01F8
3F01F8
3FC7F8
1FFFF8
0FFF78
03FC78
ENDCHAR

STARTCHAR H
ENCODING 72
SWIDTH 820 0
DWIDTH 28 0
BBX 26 23 1 0
BITMAP
FFF3FFC0
FFF3FFC0
FFF3FFC0
3FC0FF00
1F807E00
1F807E00
1F807E00
1F807E00
1F807E00
1FFFFE00
1FFFFE00
1FFFFE00
1F807E00
1F807E00
1F807E00
1F807E00
1F807E00
1F807E00
1F807E00
3FC0FF00
FFF3FFC0
FFF3FFC0
FFF3FFC0
ENDCHAR

STARTCHAR I
ENCODING 73
SWIDTH 400 0
DWIDTH 14 0
BBX 12 23 1 0
BITMAP
FFF0
FFF0
FFF0
3FC0
1F80
1F80
1F80
1F80
1F80
1F80
1F80
1F80
1F80
1F80
1F80
1F80
1F80
1F80
1F80
3FC0
FFF0
FFF0
FFF0
ENDCHAR

STARTCHAR J
ENCODING 74
SWIDTH 640 0
DWIDTH 21 0
BBX 21 23 -1 0
BITMAP
007FF8
007FF8
007FF8
001FC0
000FC0
000FC0
000FC0
000FC0
000FC0
000FC0
000FC0
000FC0
000FC0
780FC0
7C0FC0
FC0FC0
FC0FC0
F80FC0
F81FC0
7E7F80
3FFF00
1FFE00
07F800
ENDCHAR

STARTCHAR K
ENCODING 75
SWIDTH 800 0
DWIDTH 26 0
BBX 25 23 1 0
BITMAP
FFE7FF00
FFE7FF00
FFE7FF00
3FC1F800
1F83F000
1F87C000
1F8F8000
1F9F0000
1FBF0000
1FFF0000
1FFF8000
1FFFC000
1FEFC000
1FCFE000
1F87E000
1F87F000
1F83F800
1F81F800
1F81FC00
3FC1FE00
FFE7FF80
FFE7FF80
FFE7FF80
ENDCHAR

STARTCHAR L
ENCODING 76
SWIDTH 640 0
DWIDTH 22 0
BBX 21 23 1 0
BITMAP
FFF000
FFF000
FFF000
3FC000
1F8000
1F8000
1F8000
1F8000
1F8000
1F8000
1F8000
1F8000
1F8000
1F8000
1F8030
1F8038
1F8078
1F80F0
1F81F0
1F87E0
FFFFE0
FFFFE0
FFFFC0
ENDCHAR

STARTCHAR M
ENCODING 77
SWIDTH 940 0
DWIDTH 32 0
BBX 30 23 1 0
BITMAP
FFC01FFC
FFE01FFC
FFE01FFC
3FE03FF0
1FF03FE0
1FF03FE0
1FF07FE0
1DF87FE0
1DF877E0
1DF8F7E0
1CFCF7E0
1CFCE7E0
1CFDE7E0
1C7FE7E0
1C7FC7E0
1C7FC7E0
1C3FC7E0
1C3F87E0
1C3F87E0
3E1F8FF0
FF9F3FFC
FF9F3FFC
FF8F3FFC
ENDCHAR

STARTCHAR N
ENCODING 78
SWIDTH 740 0
DWIDTH 25 0
BBX 23 23 1 0
BITMAP
FFC3FE
FFE3FE
FFE3FE
3FF0F8
1FF070
1FF870
1DF870
1DFC70
1CFC70
1CFE70
1C7F70
1C7F70
1C3FF0
1C1FF0
1C1FF0
1C0FF0
1C0FF0
1C07F0
1C07F0
3E03F0
FF81F0
FF81F0
FF80F0
ENDCHAR

STARTCHAR O
ENCODING 79
SWIDTH 800 0
DWIDTH 25 0
BBX 23 23 1 0
BITMAP
01FF00
07FFC0
0FFFE0
1FC7F0
3F81F8
7F01FC
7E00FC
7E00FE
FC007E
FC007E
FC007E
FC007E
FC007E
FC007E
FC007E
FE00FC
7E00FC
7F01F8
3F03F8
1FC7F0
0FFFE0
07FFC0
01FE00
ENDCHAR

STARTCHAR P
ENCODING 80
SWIDTH 660 0
DWIDTH 22 0
BBX 21 23 1 0
BITMAP
FFFF80
FFFFE0
FFFFF0
3FC7F0
1F83F8
1F81F8
1F81F8
1F81F8
1F81F8
1F83F8
1F8FF0
1FFFF0
1FFFC0
1FFF00
1F8000
1F8000
1F8000
1F8000
1F8000
1FC000
FFE000
FFE000
FFE000
ENDCHAR

STARTCHAR Q
ENCODING 81
SWIDTH 800 0
DWIDTH 25 0
BBX 23 30 1 -7
BITMAP
01FF00
07FFC0
0FFFE0
1FC7F0
3F01F8
7F01FC
7E00FC
7E00FE
FC007E
FC007E
FC007E
FC007E
FC007E
FC007E
FC00FE
FE3FFC
7EFFFC
7EFFF8
3FEFFC
1FE7FC
0FFFFE
07FFFE
01FE3E
78003E
7C007E
7C00FC
7F07F8
3FFFF0
0FFFE0
01FF00
ENDCHAR

STARTCHAR R
ENCODING 82
SWIDTH 780 0
DWIDTH 26 0
BBX 25 23 1 0
BITMAP
FFFFC000
FFFFF000
FFFFF800
1F87FC00
1F81FC00
1F80FC00
1F80FC00
1F81FC00
1F81FC00
1F87F800
1FFFF000
1FFFE000
1FFF8000
1F9FC000
1F9FC000
1F8FE000
1F87F000
1F87F800
1F83FC00
3FC1FE00
FFF1FF80
FFF0FF80
FFF07F80
ENDCHAR

STARTCHAR S
ENCODING 83
SWIDTH 660 0
DWIDTH 21 0
BBX 19 23 1 0
BITMAP
07E700
1FFF00
3FFF00
7E3F80
F80F80
F80780
FC0380
FF0180
FFF000
FFFE00
7FFF80
3FFFC0
1FFFC0
03FFE0
C03FE0
E007E0
F003E0
F803E0
7C07C0
7F1FC0
7FFF80
7FFF00
33FC00
ENDCHAR

STARTCHAR T
ENCODING 84
SWIDTH 700 0
DWIDTH 22 0
BBX 22 23 0 0
BITMAP
3FFFF0
3FFFF0
7FFFF8
7CFCF8
78FC78
F0FC3C
E0FC1C
40FC08
00FC00
00FC00
00FC00
00FC00
00FC00
00FC00
00FC00
00FC00
00FC00
00FC00
00FC00
01FE00
07FF80
07FF80
07FF80
ENDCHAR

STARTCHAR U
ENCODING 85
SWIDTH 740 0
DWIDTH 23 0
BBX 22 23 1 0
BITMAP
FFC7FC
FFC7FC
FFC7FC
7F01F0
3F00E0
3F00E0
3F00E0
3F00E0
3F00E0
3F00E0
3F00E0
3F00E0
3F00E0
3F00E0
3F00E0
3F00E0
3F00E0
3F01E0
3F81E0
1FE7C0
0FFFC0
0FFF80
03FE00
ENDCHAR

STARTCHAR V
ENCODING 86
SWIDTH 720 0
DWIDTH 24 0
BBX 24 23 0 0
BITMAP
FFF1FF
FFF1FF
FFF1FF
3F807C
1F8078
0FC078
0FC070
0FC0F0
07E0F0
07E0E0
07E1E0
03F1E0
03F1C0
03F1C0
01FBC0
01FB80
00FB80
00FF00
00FF00
007F00
007E00
007E00
003E00
ENDCHAR

STARTCHAR W
ENCODING 87
SWIDTH 940 0
DWIDTH 32 0
BBX 32 23 0 0
BITMAP
FFDFFBFF
FFDFFBFF
FFDFFBFF
3F8FE0FC
3F87E078
1F87E070
1F83E0F0
1F83F0F0
0FC3F0E0
0FC7F0E0
0FC7F1E0
07C7F9C0
07E7F9C0
07EEF9C0
07EEFBC0
03FEFF80
03FC7F80
03FC7F80
01FC7F00
01FC7F00
01F83F00
00F83E00
00F83E00
ENDCHAR

STARTCHAR X
ENCODING 88
SWIDTH 780 0
DWIDTH 25 0
BBX 25 23 0 0
BITMAP
7FFBFF00
7FFBFF00
7FFBFF00
1FE0FC00
0FE0F800
0FF1E000
07FBE000
03FBC000
01FF8000
01FF0000
00FF0000
007F0000
00FF8000
01FF8000
03DFC000
03CFE000
078FF000
0F07F800
1F03F800
3F03FE00
FFCFFF80
FFCFFF80
FFCFFF80
ENDCHAR

STARTCHAR Y
ENCODING 89
SWIDTH 700 0
DWIDTH 24 0
BBX 24 23 0 0
BITMAP
FFF3FF
FFF3FF
FFF3FF
3FC0FC
1FE0F8
0FE0F0
07F1E0
07F3E0
03FBC0
01FF80
01FF80
00FF00
00FE00
007E00
007E00
007E00
007E00
007E00
007E00
00FF00
03FFC0
03FFC0
03FFC0
ENDCHAR

STARTCHAR Z
ENCODING 90
SWIDTH 640 0
DWIDTH 21 0
BBX 19 23 1 0
BITMAP
1FFFE0
3FFFE0
3FFFE0
3E0FC0
781FC0
703F80
E03F00
E07E00
00FE00
00FC00
01F800
03F800
03F000
07E000
0FE000
1FC060
1F80E0
3F81E0
7F03E0
7E0FC0
FFFFC0
FFFFC0
FFFF80
ENDCHAR

STARTCHAR bracketleft
ENCODING 91
SWIDTH 300 0
DWIDTH 10 0
BBX 7 29 3 -5
BITMAP
FE
FE
FE
F0
F0
F0
F0
F0
F0
F0
F0
F0
F0
F0
F0
F0
F0
F0
F0
F0
F0
F0
F0
F0
F0
F0
FE
FE
FE
ENDCHAR

STARTCHAR backslash
ENCODING 92
SWIDTH 600 0
DWIDTH 20 0
BBX 16 24 2 0
BITMAP
F000
7800
7800
3C00
3C00
1E00
1E00
0F00
0F00
0780
0780
03C0
03C0
01E0
01E0
00F0
00F0
0078
0078
003C
003C
001E
001E
000F
ENDCHAR

STARTCHAR bracketright
ENCODING 93
SWIDTH 300 0
DWIDTH 10 0
BBX 7 29 0 -5
BITMAP
FE
FE
FE
1E
1E
1E
1E
1E
1E
1E
1E
1E
1E
1E
1E
1E
1E
1E
1E
1E
1E
1E
1E
1E
1E
1E
FE
FE
FE
ENDCHAR

STARTCHAR asciicircum
ENCODING 94
SWIDTH 600 0
DWIDTH 20 0
BBX 16 14 2 9
BITMAP
03C0
03C0
07E0
07E0
0FF0
0FF0
1E78
1E78
3C3C
3C3C
781E
781E
F00F
F00F
ENDCHAR

STARTCHAR underscore
ENCODING 95
SWIDTH 500 0
DWIDTH 16 0
BBX 16 2 0 -5
BITMAP
FFFF
FFFF
ENDCHAR

STARTCHAR quoteleft
ENCODING 96
SWIDTH 320 0
DWIDTH 11 0
BBX 5 9 3 14
BITMAP
18
38
70
60
F0
F8
F8
F8
70
ENDCHAR

STARTCHAR a
ENCODING 97
SWIDTH 580 0
DWIDTH 20 0
BBX 18 17 1 0
BITMAP
07F000
1FFC00
3FFE00
7C7E00
7C3E00
7C3E00
38FE00
0FFE00
3FFE00
7F3E00
7C3E00
FC3E00
FC7E00
7FFF80
7FFFC0
3FDFC0
1F0F00
ENDCHAR

STARTCHAR b
ENCODING 98
SWIDTH 600 0
DWIDTH 18 0
BBX 19 24 -2 0
BITMAP
0F0000
FF0000
FF0000
FF0000
3F0000
1F0000
1F0000
1F7E00
1FFF00
1FFF80
1FDFC0
1F07C0
1F07E0
1F03E0
1F03E0
1F03E0
1F03E0
1F07E0
1F07E0
1F07C0
1FDFC0
1FFF80
1FFF00
1EFE00
ENDCHAR

STARTCHAR c
ENCODING 99
SWIDTH 580 0
DWIDTH 19 0
BBX 17 17 1 0
BITMAP
07F000
1FFC00
3FFE00
7F3F00
7E1F00
7C1F00
FC1F00
FC0400
FC0000
FC0000
FC0000
7E0300
7E0780
7F9F00
3FFF00
1FFC00
07F000
ENDCHAR

STARTCHAR d
ENCODING 100
SWIDTH 640 0
DWIDTH 20 0
BBX 19 24 1 0
BITMAP
000F00
00FF00
00FF00
00FF00
003F00
001F00
001F00
0FDF00
1FFF00
3FFF00
7F7F00
7C1F00
FC1F00
FC1F00
F81F00
F81F00
F81F00
FC1F00
FC1F00
FC3F00
7E7F80
3FFFE0
3FFFE0
0FDFE0
ENDCHAR

STARTCHAR e
ENCODING 101
SWIDTH 580 0
DWIDTH 18 0
BBX 16 17 1 0
BITMAP
07F0
1FF8
3FFC
7E7E
7C3E
7FFF
FFFF
FFFF
FC00
FC00
FC00
7E06
7E0F
7FBE
3FFE
1FFC
07F0
ENDCHAR

STARTCHAR f
ENCODING 102
SWIDTH 380 0
DWIDTH 13 0
BBX 14 24 0 0
BITMAP
01F8
07FC
0FFC
1FBC
1F18
1F00
1F00
FFF0
FFF0
FFF0
1F00
1F00
1F00
1F00
1F00
1F00
1F00
1F00
1F00
1F00
3F80
FFE0
FFE0
FFE0
ENDCHAR

STARTCHAR g
ENCODING 103
SWIDTH 580 0
DWIDTH 18 0
BBX 18 27 0 -7
BITMAP
000380
0007C0
000FC0
03FFC0
0FFC00
1FFE00
3F3E00
3E1F00
3E1F00
3E1F00
3E1F00
3E1F00
3F3E00
1FFE00
1FFC00
3FF000
7C0000
7FFC00
7FFF00
7FFF80
3FFFC0
700FC0
F007C0
F80F80
7FFF00
3FFE00
0FF000
ENDCHAR

STARTCHAR h
ENCODING 104
SWIDTH 680 0
DWIDTH 21 0
BBX 20 24 0 0
BITMAP
0F0000
FF0000
FF0000
FF0000
3F0000
1F0000
1F0000
1F1E00
1FFF80
1FFF80
1FFFC0
1F87C0
1F07C0
1F07C0
1F07C0
1F07C0
1F07C0
1F07C0
1F07C0
1F07C0
3F8FE0
FFDFF0
FFDFF0
FFDFF0
ENDCHAR

STARTCHAR i
ENCODING 105
SWIDTH 360 0
DWIDTH 11 0
BBX 10 24 0 0
BITMAP
1E00
3F00
3F00
3F00
3F00
1E00
0000
0F00
FF00
FF00
FF00
3F00
1F00
1F00
1F00
1F00
1F00
1F00
1F00
1F00
3F80
FFC0
FFC0
FFC0
ENDCHAR

STARTCHAR j
ENCODING 106
SWIDTH 340 0
DWIDTH 11 0
BBX 12 31 -4 -7
BITMAP
01E0
03F0
03F0
03F0
03F0
01E0
0000
00F0
0FF0
0FF0
0FF0
03F0
01F0
01F0
01F0
01F0
01F0
01F0
01F0
01F0
01F0
01F0
01F0
01F0
01F0
01F0
71F0
FBF0
FFE0
7FC0
3F00
ENDCHAR

STARTCHAR k
ENCODING 107
SWIDTH 660 0
DWIDTH 20 0
BBX 20 24 0 0
BITMAP
0F0000
FF0000
FF0000
FF0000
3F0000
1F0000
1F0000
1F7FE0
1F7FE0
1F7FE0
1F1F80
1F3E00
1F7C00
1FF800
1FFC00
1FFE00
1FFE00
1F3F00
1F3F80
1F1F80
3F8FC0
FFDFF0
FFDFF0
FFDFF0
ENDCHAR

STARTCHAR l
ENCODING 108
SWIDTH 340 0
DWIDTH 10 0
BBX 10 24 -1 0
BITMAP
0F00
FF00
FF00
FF00
3F00
1F00
1F00
1F00
1F00
1F00
1F00
1F00
1F00
1F00
1F00
1F00
1F00
1F00
1F00
1F00
3F80
7FC0
7FC0
7FC0
ENDCHAR

STARTCHAR m
ENCODING 109
SWIDTH 1000 0
DWIDTH 32 0
BBX 31 17 0 0
BITMAP
1C7E0F80
FFFF3FE0
FFFFFFF0
FFFFFFF0
3F8FE3F0
1F07C1F0
1F07C1F0
1F07C1F0
1F07C1F0
1F07C1F0
1F07C1F0
1F07C1F0
1F07C1F0
3F8FE3F8
FFDFF7FE
FFDFF7FE
FFDFF7FE
ENDCHAR

STARTCHAR n
ENCODING 110
SWIDTH 680 0
DWIDTH 21 0
BBX 20 17 0 0
BITMAP
1C7E00
FFFF80
FFFF80
FFFFC0
3F8FC0
1F07C0
1F07C0
1F07C0
1F07C0
1F07C0
1F07C0
1F07C0
1F07C0
3F8FE0
FFDFF0
FFDFF0
FFDFF0
ENDCHAR

STARTCHAR o
ENCODING 111
SWIDTH 620 0
DWIDTH 20 0
BBX 18 17 1 0
BITMAP
07F800
1FFE00
3FFF00
7F3F80
7E1F80
7C0F80
FC0FC0
FC0FC0
FC0FC0
FC0FC0
FC0FC0
7C0F80
7E1F80
7F3F80
3FFF00
1FFE00
07F800
ENDCHAR

STARTCHAR p
ENCODING 112
SWIDTH 640 0
DWIDTH 20 0
BBX 19 24 -1 -7
BITMAP
0F7F00
FFFF80
FFFFC0
FFDFC0
3F07E0
1F07E0
1F03E0
1F03E0
1F03E0
1F03E0
1F03E0
1F07E0
1F07C0
1FDFC0
1FFF80
1FFF00
1F7E00
1F0000
1F0000
1F0000
3F8000
FFE000
FFE000
FFE000
ENDCHAR

STARTCHAR q
ENCODING 113
SWIDTH 620 0
DWIDTH 19 0
BBX 19 24 1 -7
BITMAP
038F00
1FFF00
3FFF00
7FFF00
7E3F00
FC1F00
FC1F00
F81F00
F81F00
F81F00
F81F00
FC1F00
FC1F00
7E3F00
3FFF00
1FFF00
0FDF00
001F00
001F00
001F00
003F80
00FFE0
00FFE0
00FFE0
ENDCHAR

STARTCHAR r
ENCODING 114
SWIDTH 460 0
DWIDTH 14 0
BBX 14 17 0 0
BITMAP
0E38
FEFC
FFFC
FFFC
3F38
1F00
1F00
1F00
1F00
1F00
1F00
1F00
1F00
3F80
FFE0
FFE0
FFE0
ENDCHAR

STARTCHAR s
ENCODING 115
SWIDTH 520 0
DWIDTH 17 0
BBX 15 17 1 0
BITMAP
0FD8
3FF8
7FF8
7C7C
F83C
FC10
FFE0
7FF8
7FFC
3FFE
0FFE
E07E
F03E
F87C
7FFC
7FF8
77E0
ENDCHAR

STARTCHAR t
ENCODING 116
SWIDTH 460 0
DWIDTH 13 0
BBX 13 22 0 0
BITMAP
0E00
0E00
1E00
1E00
3E00
FFF0
FFF0
FFF0
3E00
3E00
3E00
3E00
3E00
3E00
3E00
3E00
3E00
3F30
3FF8
3FF0
1FE0
0F80
ENDCHAR

STARTCHAR u
ENCODING 117
SWIDTH 660 0
DWIDTH 21 0
BBX 20 17 0 0
BITMAP
0F03C0
FF3FC0
FF3FC0
FF3FC0
3F0FC0
1F07C0
1F07C0
1F07C0
1F07C0
1F07C0
1F07C0
1F07C0
1F0FC0
1FBFE0
1FFFF0
0FFFF0
07F7F0
ENDCHAR

STARTCHAR v
ENCODING 118
SWIDTH 600 0
DWIDTH 19 0
BBX 19 17 0 0
BITMAP
FF9FE0
FF9FE0
FF9FE0
7F0FC0
3F0F80
1F0F00
1F8F00
1F9E00
0FDE00
0FDC00
07FC00
07FC00
03F800
03F800
03F000
01F000
01E000
ENDCHAR

STARTCHAR w
ENCODING 119
SWIDTH 800 0
DWIDTH 26 0
BBX 26 17 0 0
BITMAP
FF7FBFC0
FF7FBFC0
FF7FBFC0
7E3F1F80
3E3F0F00
3E3F0E00
3E3F1E00
1F3F1C00
1F3FBC00
0F7FBC00
0FF7B800
0FF7F800
07F7F800
07E3F000
07E3F000
03E3E000
03C3E000
ENDCHAR

STARTCHAR x
ENCODING 120
SWIDTH 600 0
DWIDTH 21 0
BBX 19 17 1 0
BITMAP
FF9FE0
FF9FE0
FF9FE0
3F0F80
1F9F00
0FFE00
07FC00
03F800
01F000
03F800
07FC00
0FBE00
1F1F00
3E0F80
FF1FE0
FF1FE0
FF1FE0
ENDCHAR

STARTCHAR y
ENCODING 121
SWIDTH 620 0
DWIDTH 21 0
BBX 19 24 1 -7
BITMAP
FFDFE0
FFDFE0
FFDFE0
7F0FC0
3F0F80
1F0F00
1F9F00
0F9E00
0FDE00
0FDC00
07FC00
07F800
03F800
03F800
03F000
01F000
01E000
01E000
33C000
7FC000
FF8000
FF0000
7F0000
3C0000
ENDCHAR

STARTCHAR z
ENCODING 122
SWIDTH 560 0
DWIDTH 19 0
BBX 16 17 1 0
BITMAP
3FFF
3FFF
3FFF
7C7E
78FE
71FC
03F8
07F0
07E0
0FE0
1FC3
3F87
7F0F
7E3F
FFFF
FFFE
FFFE
ENDCHAR

STARTCHAR braceleft
ENCODING 123
SWIDTH 320 0
DWIDTH 11 0
BBX 7 29 2 -5
BITMAP
0E
18
38
38
38
38
38
38
38
38
38
38
38
70
E0
70
38
38
38
38
38
38
38
38
38
38
38
18
0E
ENDCHAR

STARTCHAR bar
ENCODING 124
SWIDTH 600 0
DWIDTH 20 0
BBX 4 24 8 0
BITMAP
F0
F0
F0
F0
F0
F0
F0
F0
F0
F0
F0
F0
F0
F0
F0
F0
F0
F0
F0
F0
F0
F0
F0
F0
ENDCHAR

STARTCHAR braceright
ENCODING 125
SWIDTH 320 0
DWIDTH 11 0
BBX 7 29 1 -5
BITMAP
E0
30
38
38
38
38
38
38
38
38
38
38
38
1C
0E
1C
38
38
38
38
38
38
38
38
38
38
38
30
E0
ENDCHAR

STARTCHAR asciitilde
ENCODING 126
SWIDTH 600 0
DWIDTH 20 0
BBX 16 6 2 6
BITMAP
3E07
7FC7
FFFF
FFFF
E1FE
E03C
ENDCHAR

STARTCHAR exclamdown
ENCODING 161
SWIDTH 360 0
DWIDTH 12 0
BBX 8 24 2 -7
BITMAP
3C
7E
7E
7E
7E
3C
00
3C
3E
7E
7E
7E
7E
7E
7E
FF
FF
FF
FF
FF
FF
FF
FF
7E
ENDCHAR

STARTCHAR cent
ENCODING 162
SWIDTH 660 0
DWIDTH 22 0
BBX 13 23 4 0
BITMAP
0300
0300
0300
0300
0300
0FE0
3FF0
3EF8
7878
7870
F800
F800
F800
7800
7C38
3FF8
1FE0
0780
0300
0300
0300
0300
0300
ENDCHAR

STARTCHAR sterling
ENCODING 163
SWIDTH 660 0
DWIDTH 22 0
BBX 21 23 0 0
BITMAP
003F00
00FFC0
03FFE0
07E1E0
07C0F0
0F81F0
0F81F0
0F80E0
0FC000
3FFF00
7FFF00
07E000
03E000
03F000
03F000
01F1E0
3FF1F0
7FF178
FFFC38
E3FFF8
FFFFF8
7FCFF0
3F03E0
ENDCHAR

STARTCHAR currency
ENCODING 164
SWIDTH 660 0
DWIDTH 22 0
BBX 15 16 3 3
BITMAP
67CC
FFFE
FFFE
7FFC
7C7C
F83E
F01E
F01E
F01E
F01E
F83E
7C7C
7FFC
FFFE
FFFE
67CC
ENDCHAR

STARTCHAR yen
ENCODING 165
SWIDTH 660 0
DWIDTH 22 0
BBX 23 23 -1 0
BITMAP
FFF7FE
FFF7FE
FFF7FE
3F80F8
1FC1F0
0FC1E0
07E3C0
07E3C0
3FF7F8
3FF7F8
01FF00
00FE00
00FE00
3FFFF8
3FFFF8
007C00
007C00
007C00
007C00
00FE00
03FF80
03FF80
03FF80
ENDCHAR

STARTCHAR brokenbar
ENCODING 166
SWIDTH 600 0
DWIDTH 20 0
BBX 4 24 8 0
BITMAP
F0
F0
F0
F0
F0
F0
F0
F0
00
00
00
00
00
00
00
00
F0
F0
F0
F0
F0
F0
F0
F0
ENDCHAR

STARTCHAR section
ENCODING 167
SWIDTH 600 0
DWIDTH 20 0
BBX 17 28 1 -5
BITMAP
03F000
0FFC00
3FFE00
3E1F00
7C1F00
7C0F00
7E0600
7FC000
3FF800
3FFE00
3FFF00
3FFF00
7C3F80
7C0F80
7E0F80
7FEF00
7FFF00
3FFE00
0FFF00
01FF80
001F80
780F80
F80F80
FC0F00
FC3F00
7FFE00
3FFC00
0FF000
ENDCHAR

STARTCHAR dieresis
ENCODING 168
SWIDTH 500 0
DWIDTH 17 0
BBX 12 5 2 18
BITMAP
6060
F0F0
F0F0
F0F0
6060
ENDCHAR

STARTCHAR copyright
ENCODING 169
SWIDTH 740 0
DWIDTH 25 0
BBX 22 23 1 0
BITMAP
01FE00
07FF80
0F87C0
1C00E0
380070
70FE38
61EF18
E38718
E3831C
C7001C
C7000C
C7000C
C7000C
C7801C
E7801C
63C318
61EE38
70FC38
380070
1C00E0
0F87C0
07FF80
01FE00
ENDCHAR

STARTCHAR ordfeminine
ENCODING 170
SWIDTH 400 0
DWIDTH 13 0
BBX 11 13 1 10
BITMAP
1E00
7F80
7380
6380
0F80
7F80
F380
F380
FFE0
7FE0
0000
0000
FFE0
ENDCHAR

STARTCHAR guillemotleft
ENCODING 171
SWIDTH 400 0
DWIDTH 13 0
BBX 11 12 1 3
BITMAP
1860
38E0
38E0
71C0
71C0
E380
E380
71C0
71C0
38E0
38E0
1860
ENDCHAR

STARTCHAR logicalnot
ENCODING 172
SWIDTH 600 0
DWIDTH 20 0
BBX 16 10 1 4
BITMAP
FFFF
FFFF
FFFF
FFFF
0007
0007
0007
0007
0007
0007
ENDCHAR

STARTCHAR hyphen
ENCODING 173
SWIDTH 360 0
DWIDTH 12 0
BBX 10 4 1 7
BITMAP
7FC0
7FC0
FF80
FF80
ENDCHAR

STARTCHAR registered
ENCODING 174
SWIDTH 740 0
DWIDTH 25 0
BBX 22 23 1 0
BITMAP
01FE00
07FF80
0F87C0
1C01E0
380070
73FC38
71CE38
61C718
E1C71C
C1C61C
C1CC0C
C1F80C
C1DC0C
C1CE1C
E1CE1C
61C718
61C718
73E3B8
380070
1C00E0
0F87C0
07FF80
01FE00
ENDCHAR

STARTCHAR macron
ENCODING 175
SWIDTH 460 0
DWIDTH 15 0
BBX 10 3 2 18
BITMAP
FFC0
FFC0
FFC0
ENDCHAR

STARTCHAR degree
ENCODING 176
SWIDTH 400 0
DWIDTH 13 0
BBX 9 10 2 13
BITMAP
3E00
7F00
F780
E380
C180
C180
E380
F780
7F00
3E00
ENDCHAR

STARTCHAR plusminus
ENCODING 177
SWIDTH 600 0
DWIDTH 20 0
BBX 16 17 2 0
BITMAP
03C0
03C0
03C0
03C0
FFFF
FFFF
FFFF
FFFF
03C0
03C0
03C0
03C0
03C0
FFFF
FFFF
FFFF
FFFF
ENDCHAR

STARTCHAR twosuperior
ENCODING 178
SWIDTH 396 0
DWIDTH 13 0
BBX 13 14 0 9
BITMAP
1F80
7FE0
F1F0
F0F0
F0F0
61F0
01E0
03C0
0780
0F18
1E38
3FF0
7FF0
FFF0
ENDCHAR

STARTCHAR threesuperior
ENCODING 179
SWIDTH 396 0
DWIDTH 13 0
BBX 12 14 0 9
BITMAP
1F80
7FE0
F0F0
F0F0
61E0
0FC0
0FE0
01F0
00F0
E0F0
E0F0
F1E0
7FC0
3F80
ENDCHAR

STARTCHAR acute
ENCODING 180
SWIDTH 400 0
DWIDTH 13 0
BBX 8 6 2 18
BITMAP
0E
1F
3F
7F
FC
E0
ENDCHAR

STARTCHAR mu
ENCODING 181
SWIDTH 660 0
DWIDTH 22 0
BBX 20 24 0 -7
BITMAP
1F03C0
FF3FC0
FF3FC0
FF3FC0
3F0FC0
1F07C0
1F07C0
1F07C0
1F07C0
1F07C0
1F07C0
1F07C0
1F0FC0
1FBFE0
1FFFF0
1FFFF0
1FF7F0
1F0000
1F0000
1F0000
3F8000
3F8000
3F8000
1F0000
ENDCHAR

STARTCHAR paragraph
ENCODING 182
SWIDTH 800 0
DWIDTH 27 0
BBX 24 26 0 -3
BITMAP
0FFFFF
3FFFFF
7FFFFF
7FFCFC
FFFCF8
FFFCF8
FFFCF8
FFFCF8
FFFCF8
7FFCF8
7FFCF8
3FFCF8
1FFCF8
00FCF8
007CF8
007CF8
007CF8
007CF8
007CF8
007CF8
007CF8
007CF8
00FCFC
03FFFF
03FFFF
03FFFF
ENDCHAR

STARTCHAR periodcentered
ENCODING 183
SWIDTH 340 0
DWIDTH 11 0
BBX 6 6 2 6
BITMAP
78
FC
FC
FC
FC
78
ENDCHAR

STARTCHAR cedilla
ENCODING 184
SWIDTH 360 0
DWIDTH 12 0
BBX 7 7 2 -7
BITMAP
30
70
7C
0E
CE
FC
78
ENDCHAR

STARTCHAR onesuperior
ENCODING 185
SWIDTH 396 0
DWIDTH 13 0
BBX 7 14 3 9
BITMAP
18
F8
F8
38
38
38
38
38
38
38
38
38
FE
FE
ENDCHAR

STARTCHAR ordmasculine
ENCODING 186
SWIDTH 400 0
DWIDTH 13 0
BBX 12 13 0 10
BITMAP
0F00
3FC0
79E0
F0F0
F0F0
F0F0
F0F0
79E0
3FC0
0F00
0000
0000
7FE0
ENDCHAR

STARTCHAR guillemotright
ENCODING 187
SWIDTH 400 0
DWIDTH 13 0
BBX 11 12 1 3
BITMAP
C300
E380
E380
71C0
71C0
38E0
38E0
71C0
71C0
E380
E380
C300
ENDCHAR

STARTCHAR onequarter
ENCODING 188
SWIDTH 990 0
DWIDTH 33 0
BBX 29 23 2 0
BITMAP
18003800
F8003800
F8007000
38007000
3800E000
3800E000
3801C000
3801C000
38038000
380381C0
380703C0
380707C0
FE0E0FC0
FE0E0DC0
001C19C0
001C39C0
003871C0
0038E1C0
0070FFF8
0070FFF8
00E001C0
00E007F0
01C007F0
ENDCHAR

STARTCHAR onehalf
ENCODING 189
SWIDTH 990 0
DWIDTH 33 0
BBX 29 23 2 0
BITMAP
18007000
F8007000
F800E000
3800E000
3801C000
3801C000
38038000
38038000
38070000
38071F80
380E7FE0
380EF1F0
FE1CF0F0
FE1CF0F0
003861F0
003801E0
007003C0
00700780
00E00F18
00E01E38
01C03FF0
01C07FF0
0380FFF0
ENDCHAR

STARTCHAR threequarters
ENCODING 190
SWIDTH 990 0
DWIDTH 33 0
BBX 31 23 0 0
BITMAP
1F800E00
7FE00E00
F0F01C00
F0F01C00
61E03800
0FC03800
0FE07000
01F07000
00F0E000
E0F0E070
E0F1C0F0
F1E1C1F0
7FC383F0
3F838370
00070670
00070E70
000E1C70
000E3870
001C3FFE
001C3FFE
00380070
003801FC
007001FC
ENDCHAR

STARTCHAR questiondown
ENCODING 191
SWIDTH 660 0
DWIDTH 22 0
BBX 18 23 1 -6
BITMAP
01E000
03F000
03F000
03F000
03F000
01E000
000000
000000
01E000
01E000
07C000
0FC000
3F8000
7F0000
7E0380
7E07C0
FC07C0
FC07C0
7E07C0
7F0F80
3FFF00
1FFE00
07F800
ENDCHAR

STARTCHAR Agrave
ENCODING 192
SWIDTH 720 0
DWIDTH 25 0
BBX 25 27 0 0
BITMAP
00700000
00F80000
00FC0000
00FE0000
003F0000
00070000
00000000
003E0000
003E0000
007F0000
007F0000
00FF8000
00FF8000
01CFC000
01CFC000
0387E000
0387E000
0703F000
07FFF000
0FFFF800
0E01F800
1C00FC00
1C00FC00
3C00FE00
FF03FF80
FF03FF80
FF03FF80
ENDCHAR

STARTCHAR Aacute
ENCODING 193
SWIDTH 720 0
DWIDTH 25 0
BBX 25 27 0 0
BITMAP
000E0000
001F0000
003F0000
007F0000
00FC0000
00E00000
00000000
003E0000
003E0000
007F0000
007F0000
00FF8000
00FF8000
01CFC000
01CFC000
0387E000
0387E000
0703F000
07FFF000
0FFFF800
0E01F800
1C00FC00
1C00FC00
3C00FE00
FF03FF80
FF03FF80
FF03FF80
ENDCHAR

STARTCHAR Acircumflex
ENCODING 194
SWIDTH 720 0
DWIDTH 25 0
BBX 25 26 0 0
BITMAP
00180000
003C0000
007E0000
00FF0000
01E78000
00000000
003E0000
003E0000
007F0000
007F0000
00FF8000
00FF8000
01CFC000
01CFC000
0387E000
0387E000
0703F000
07FFF000
0FFFF800
0E01F800
1C00FC00
1C00FC00
3C00FE00
FF03FF80
FF03FF80
FF03FF80
ENDCHAR

STARTCHAR Atilde
ENCODING 195
SWIDTH 720 0
DWIDTH 25 0
BBX 25 25 0 0
BITMAP
00718000
00FFC000
01FF8000
00C70000
00000000
003E0000
003E0000
007F0000
007F0000
00FF8000
00FF8000
01CFC000
01CFC000
0387E000
0387E000
0703F000
07FFF000
0FFFF800
0E01F800
1C00FC00
1C00FC00
3C00FE00
FF03FF80
FF03FF80
FF03FF80
ENDCHAR

STARTCHAR Adieresis
ENCODING 196
SWIDTH 720 0
DWIDTH 25 0
BBX 25 26 0 0
BITMAP
01818000
03C3C000
03C3C000
03C3C000
01818000
00000000
003E0000
003E0000
007F0000
007F0000
00FF8000
00FF8000
01CFC000
01CFC000
0387E000
0387E000
0703F000
07FFF000
0FFFF800
0E01F800
1C00FC00
1C00FC00
3C00FE00
FF03FF80
FF03FF80
FF03FF80
ENDCHAR

STARTCHAR Aring
ENCODING 197
SWIDTH 720 0
DWIDTH 25 0
BBX 25 27 0 0
BITMAP
003E0000
00770000
00630000
00630000
00770000
003E0000
00000000
003E0000
003E0000
007F0000
007F0000
00FF8000
00FF8000
01CFC000
01CFC000
0387E000
0387E000
0703F000
07FFF000
0FFFF800
0E01F800
1C00FC00
1C00FC00
3C00FE00
FF03FF80
FF03FF80
FF03FF80
ENDCHAR

STARTCHAR AE
ENCODING 198
SWIDTH 1140 0
DWIDTH 38 0
BBX 38 23 -1 0
BITMAP
00007FFFC0
00007FFFE0
0000FFFFE0
0001FF07F0
0001FF01F0
0003FE0C78
0007BE1C38
000F3E1C30
000E3E1C00
001E3FFC00
003C3FFC00
00783FFC00
007FFFFC00
00FFFE1C00
01FFFE1C18
03E03E1C3C
03C03E0C38
07803E0078
0F803E01F8
3F007F07F0
FFE1FFFFF0
FFE1FFFFE0
FFE1FFFFE0
ENDCHAR

STARTCHAR Ccedilla
ENCODING 199
SWIDTH 740 0
DWIDTH 23 0
BBX 22 30 1 -7
BITMAP
01FCE0
07FFE0
0FFFE0
1FC7F0
3F01F0
7F00F0
7E0078
FE0038
FC0038
FC0000
FC0000
FC0000
FC0000
FC0000
FE0000
FE0018
7E003C
7F0078
3F80F8
1FE3F0
0FFFE0
07FFC0
01FE00
006000
00E000
00F800
001C00
019C00
01F800
00F000
ENDCHAR

STARTCHAR Egrave
ENCODING 200
SWIDTH 720 0
DWIDTH 22 0
BBX 21 27 1 0
BITMAP
01C000
03E000
03F000
03F800
00FC00
001C00
000000
FFFFC0
FFFFE0
FFFFE0
3F83F0
3F00F0
3F0C70
3F0C30
3F1C30
3FFC00
3FFC00
3F1C00
3F0C18
3F0C38
3F0038
3F0078
3F00F0
7F03F0
FFFFF0
FFFFE0
FFFFE0
ENDCHAR

STARTCHAR Eacute
ENCODING 201
SWIDTH 720 0
DWIDTH 22 0
BBX 21 27 1 0
BITMAP
003800
007C00
00FC00
01FC00
03F000
038000
000000
FFFFC0
FFFFE0
FFFFE0
3F83F0
3F00F0
3F0C70
3F0C30
3F1C30
3FFC00
3FFC00
3F1C00
3F0C18
3F0C38
3F0038
3F0078
3F00F0
7F03F0
FFFFF0
FFFFE0
FFFFE0
ENDCHAR

STARTCHAR Ecircumflex
ENCODING 202
SWIDTH 720 0
DWIDTH 22 0
BBX 21 26 1 0
BITMAP
006000
00F000
01F800
03FC00
079E00
000000
FFFFC0
FFFFE0
FFFFE0
3F83F0
3F00F0
3F0C70
3F0C30
3F1C30
3FFC00
3FFC00
3F1C00
3F0C18
3F0C38
3F0038
3F0078
3F00F0
7F03F0
FFFFF0
FFFFE0
FFFFE0
ENDCHAR

STARTCHAR Edieresis
ENCODING 203
SWIDTH 720 0
DWIDTH 22 0
BBX 21 26 1 0
BITMAP
060600
0F0F00
0F0F00
0F0F00
060600
000000
FFFFC0
FFFFE0
FFFFE0
3F83F0
3F00F0
3F0C70
3F0C30
3F1C30
3FFC00
3FFC00
3F1C00
3F0C18
3F0C38
3F0038
3F0078
3F00F0
7F03F0
FFFFF0
FFFFE0
FFFFE0
ENDCHAR

STARTCHAR Igrave
ENCODING 204
SWIDTH 400 0
DWIDTH 14 0
BBX 12 27 1 0
BITMAP
1C00
3E00
3F00
3F80
0FC0
01C0
0000
FFF0
FFF0
FFF0
3FC0
1F80
1F80
1F80
1F80
1F80
1F80
1F80
1F80
1F80
1F80
1F80
1F80
3FC0
FFF0
FFF0
FFF0
ENDCHAR

STARTCHAR Iacute
ENCODING 205
SWIDTH 400 0
DWIDTH 14 0
BBX 12 27 1 0
BITMAP
0380
07C0
0FC0
1FC0
3F00
3800
0000
FFF0
FFF0
FFF0
3FC0
1F80
1F80
1F80
1F80
1F80
1F80
1F80
1F80
1F80
1F80
1F80
1F80
3FC0
FFF0
FFF0
FFF0
ENDCHAR

STARTCHAR Icircumflex
ENCODING 206
SWIDTH 400 0
DWIDTH 14 0
BBX 12 26 1 0
BITMAP
0600
0F00
1F80
3FC0
79E0
0000
FFF0
FFF0
FFF0
3FC0
1F80
1F80
1F80
1F80
1F80
1F80
1F80
1F80
1F80
1F80
1F80
1F80
3FC0
FFF0
FFF0
FFF0
ENDCHAR

STARTCHAR Idieresis
ENCODING 207
SWIDTH 400 0
DWIDTH 14 0
BBX 12 26 1 0
BITMAP
6060
F0F0
F0F0
F0F0
6060
0000
FFF0
FFF0
FFF0
3FC0
1F80
1F80
1F80
1F80
1F80
1F80
1F80
1F80
1F80
1F80
1F80
1F80
3FC0
FFF0
FFF0
FFF0
ENDCHAR

STARTCHAR Eth
ENCODING 208
SWIDTH 780 0
DWIDTH 25 0
BBX 24 23 0 0
BITMAP
FFFF80
FFFFE0
FFFFF0
3F87F8
1F81FC
1F80FE
1F807E
1F807F
1F807F
FFFC3F
FFFC3F
FFFC3F
1F803F
1F803F
1F807F
1F807F
1F807E
1F80FE
1F81FC
3F87FC
FFFFF8
FFFFE0
FFFF80
ENDCHAR

STARTCHAR Ntilde
ENCODING 209
SWIDTH 740 0
DWIDTH 25 0
BBX 23 25 1 0
BITMAP
00E300
01FF80
03FF00
018E00
000000
FE03FE
FF03FE
FF83FE
3FC0F8
1FE070
1FF070
1FF870
1FFC70
1DFE70
1CFF70
1C7FF0
1C3FF0
1C1FF0
1C0FF0
1C07F0
1C03F0
3E01F0
FF80F0
FF8070
FF8030
ENDCHAR

STARTCHAR Ograve
ENCODING 210
SWIDTH 800 0
DWIDTH 25 0
BBX 23 27 1 0
BITMAP
00E000
01F000
01F800
01FC00
007E00
000E00
000000
01FF00
07FFC0
1FFFF0
3FC7F8
7F01FC
7E00FC
FE00FE
FC007E
FC007E
FC007E
FC007E
FC007E
FC007E
FE00FE
7E00FC
7F01FC
3FC7F8
1FFFF0
07FFC0
01FF00
ENDCHAR

STARTCHAR Oacute
ENCODING 211
SWIDTH 800 0
DWIDTH 25 0
BBX 23 27 1 0
BITMAP
001C00
003E00
007E00
00FE00
01F800
01C000
000000
01FF00
07FFC0
1FFFF0
3FC7F8
7F01FC
7E00FC
FE00FE
FC007E
FC007E
FC007E
FC007E
FC007E
FC007E
FE00FE
7E00FC
7F01FC
3FC7F8
1FFFF0
07FFC0
01FF00
ENDCHAR

STARTCHAR Ocircumflex
ENCODING 212
SWIDTH 800 0
DWIDTH 25 0
BBX 23 26 1 0
BITMAP
003000
007800
00FC00
01FE00
03CF00
000000
01FF00
07FFC0
1FFFF0
3FC7F8
7F01FC
7E00FC
FE00FE
FC007E
FC007E
FC007E
FC007E
FC007E
FC007E
FE00FE
7E00FC
7F01FC
3FC7F8
1FFFF0
07FFC0
01FF00
ENDCHAR

STARTCHAR Otilde
ENCODING 213
SWIDTH 800 0
DWIDTH 25 0
BBX 23 25 1 0
BITMAP
00E300
01FF80
03FF00
018E00
000000
01FF00
07FFC0
1FFFF0
3FC7F8
7F01FC
7E00FC
FE00FE
FC007E
FC007E
FC007E
FC007E
FC007E
FC007E
FE00FE
7E00FC
7F01FC
3FC7F8
1FFFF0
07FFC0
01FF00
ENDCHAR

STARTCHAR Odieresis
ENCODING 214
SWIDTH 800 0
DWIDTH 25 0
BBX 23 26 1 0
BITMAP
030300
078780
078780
078780
030300
000000
01FF00
07FFC0
1FFFF0
3FC7F8
7F01FC
7E00FC
FE00FE
FC007E
FC007E
FC007E
FC007E
FC007E
FC007E
FE00FE
7E00FC
7F01FC
3FC7F8
1FFFF0
07FFC0
01FF00
ENDCHAR

STARTCHAR multiply
ENCODING 215
SWIDTH 600 0
DWIDTH 20 0
BBX 16 17 2 0
BITMAP
2004
700E
F81F
FC3F
7E7E
3FFC
1FF8
0FF0
07E0
0FF0
1FF8
3FFC
7E7E
FC3F
F81F
700E
2004
ENDCHAR

STARTCHAR Oslash
ENCODING 216
SWIDTH 800 0
DWIDTH 27 0
BBX 24 29 1 -3
BITMAP
000070
000070
0000E0
00FFE0
07FFE0
0FFFF0
1FC7F8
3F83FC
3F07FE
7E077E
7E0E7E
FE0E3F
FC1C3F
FC1C3F
FC383F
FC383F
FC703F
FC703F
7EE07E
7EE07E
3FC0FC
3FC1FC
1FC3F8
0FFFF0
07FFE0
07FF80
0E0000
0E0000
1C0000
ENDCHAR

STARTCHAR Ugrave
ENCODING 217
SWIDTH 740 0
DWIDTH 23 0
BBX 22 27 1 0
BITMAP
00E000
01F000
01F800
01FC00
007E00
000E00
000000
FFC7FC
FFC7FC
FFC7FC
7F01F0
3F00E0
3F00E0
3F00E0
3F00E0
3F00E0
3F00E0
3F00E0
3F00E0
3F00E0
3F00E0
3F01E0
3F81E0
1FE7C0
0FFFC0
0FFF80
03FE00
ENDCHAR

STARTCHAR Uacute
ENCODING 218
SWIDTH 740 0
DWIDTH 23 0
BBX 22 27 1 0
BITMAP
001C00
003E00
007E00
00FE00
01F800
01C000
000000
FFC7FC
FFC7FC
FFC7FC
7F01F0
3F00E0
3F00E0
3F00E0
3F00E0
3F00E0
3F00E0
3F00E0
3F00E0
3F00E0
3F00E0
3F01E0
3F81E0
1FE7C0
0FFFC0
0FFF80
03FE00
ENDCHAR

STARTCHAR Ucircumflex
ENCODING 219
SWIDTH 740 0
DWIDTH 23 0
BBX 22 26 1 0
BITMAP
003000
007800
00FC00
01FE00
03CF00
000000
FFC7FC
FFC7FC
FFC7FC
7F01F0
3F00E0
3F00E0
3F00E0
3F00E0
3F00E0
3F00E0
3F00E0
3F00E0
3F00E0
3F00E0
3F01E0
3F81E0
1FE7C0
0FFFC0
0FFF80
03FE00
ENDCHAR

STARTCHAR Udieresis
ENCODING 220
SWIDTH 740 0
DWIDTH 23 0
BBX 22 26 1 0
BITMAP
030300
078780
078780
078780
030300
000000
FFC7FC
FFC7FC
FFC7FC
7F01F0
3F00E0
3F00E0
3F00E0
3F00E0
3F00E0
3F00E0
3F00E0
3F00E0
3F00E0
3F00E0
3F01E0
3F81E0
1FE7C0
0FFFC0
0FFF80
03FE00
ENDCHAR

STARTCHAR Yacute
ENCODING 221
SWIDTH 700 0
DWIDTH 23 0
BBX 24 27 -1 0
BITMAP
000600
000F00
001F00
003F00
007C00
007000
000000
FFE1FF
FFE1FF
FFE1FF
3F807C
1FC0F8
0FE1F0
07F3E0
03FFC0
01FF80
00FF00
00FE00
007E00
007E00
007E00
007E00
007E00
00FF00
03FFC0
03FFC0
03FFC0
ENDCHAR

STARTCHAR Thorn
ENCODING 222
SWIDTH 660 0
DWIDTH 22 0
BBX 21 23 0 0
BITMAP
FFF000
FFF000
FFF000
3FC000
1F8000
1F8000
1FFF00
1FFFE0
1FFFF0
1F83F0
1F83F8
1F81F8
1F83F8
1F87F0
1FFFF0
1FFFE0
1FFF00
1F8000
1F8000
3FC000
FFE000
FFE000
FFE000
ENDCHAR

STARTCHAR germandbls
ENCODING 223
SWIDTH 660 0
DWIDTH 22 0
BBX 23 26 -2 -3
BITMAP
007FC0
00FFE0
01FBF0
03E1F0
07E1F0
07E1F0
07C3E0
1FCFC0
1FCF80
07CFE0
07CFF0
07C7FC
07C1FC
07C0FE
07C07E
07C07E
07C07E
07C07E
07C0FC
07C1FC
07CFF8
0FDFE0
0F9FC0
FF8000
FE0000
F80000
ENDCHAR

STARTCHAR agrave
ENCODING 224
SWIDTH 580 0
DWIDTH 20 0
BBX 18 24 1 0
BITMAP
038000
07C000
07E000
07F000
01F800
003800
000000
07F000
1FFC00
3FFE00
7C7E00
7C3E00
7C3E00
38FE00
0FFE00
3FFE00
7F3E00
7C3E00
FC3E00
FC7E00
7FFF80
7FFFC0
3FDFC0
1F0F00
ENDCHAR

STARTCHAR aacute
ENCODING 225
SWIDTH 580 0
DWIDTH 20 0
BBX 18 24 1 0
BITMAP
007000
00F800
01F800
03F800
07E000
070000
000000
07F000
1FFC00
3FFE00
7C7E00
7C3E00
7C3E00
38FE00
0FFE00
3FFE00
7F3E00
7C3E00
FC3E00
FC7E00
7FFF80
7FFFC0
3FDFC0
1F0F00
ENDCHAR

STARTCHAR acircumflex
ENCODING 226
SWIDTH 580 0
DWIDTH 20 0
BBX 18 23 1 0
BITMAP
00C000
01E000
03F000
07F800
0F3C00
000000
07F000
1FFC00
3FFE00
7C7E00
7C3E00
7C3E00
38FE00
0FFE00
3FFE00
7F3E00
7C3E00
FC3E00
FC7E00
7FFF80
7FFFC0
3FDFC0
1F0F00
ENDCHAR

STARTCHAR atilde
ENCODING 227
SWIDTH 580 0
DWIDTH 20 0
BBX 18 22 1 0
BITMAP
071800
0FFC00
1FF800
0C7000
000000
07F000
1FFC00
3FFE00
7C7E00
7C3E00
7C3E00
38FE00
0FFE00
3FFE00
7F3E00
7C3E00
FC3E00
FC7E00
7FFF80
7FFFC0
3FDFC0
1F0F00
ENDCHAR

STARTCHAR adieresis
ENCODING 228
SWIDTH 580 0
DWIDTH 20 0
BBX 18 23 1 0
BITMAP
0C0C00
1E1E00
1E1E00
1E1E00
0C0C00
000000
07F000
1FFC00
3FFE00
7C7E00
7C3E00
7C3E00
38FE00
0FFE00
3FFE00
7F3E00
7C3E00
FC3E00
FC7E00
7FFF80
7FFFC0
3FDFC0
1F0F00
ENDCHAR

STARTCHAR aring
ENCODING 229
SWIDTH 580 0
DWIDTH 20 0
BBX 18 24 1 0
BITMAP
03E000
077000
063000
063000
077000
03E000
000000
07F000
1FFC00
3FFE00
7C7E00
7C3E00
7C3E00
38FE00
0FFE00
3FFE00
7F3E00
7C3E00
FC3E00
FC7E00
7FFF80
7FFFC0
3FDFC0
1F0F00
ENDCHAR

STARTCHAR ae
ENCODING 230
SWIDTH 880 0
DWIDTH 28 0
BBX 26 17 1 0
BITMAP
07E1FC00
1FFFFE00
7FFFFF80
7C7F8F80
7C3F0FC0
783F07C0
30FFFFC0
0FFFFFC0
3FFFFFC0
7FFF0000
FC3F0000
FC3F01C0
F87F83C0
FCFFE7C0
FFFFFF80
7FE7FF00
3F81FC00
ENDCHAR

STARTCHAR ccedilla
ENCODING 231
SWIDTH 580 0
DWIDTH 19 0
BBX 17 24 1 -7
BITMAP
07F000
1FFC00
3FFE00
7F3F00
7E1F00
7C1F00
FC1F00
FC0400
FC0000
FC0000
FC0000
7E0300
7E0780
7F9F00
3FFF00
1FFC00
07F000
018000
038000
03E000
007000
067000
07E000
03C000
ENDCHAR

STARTCHAR egrave
ENCODING 232
SWIDTH 580 0
DWIDTH 18 0
BBX 16 24 1 0
BITMAP
0700
0F80
0FC0
0FE0
03F0
0070
0000
07F0
1FF8
3FFC
7E7E
7C3E
7FFF
FFFF
FFFF
FC00
FC00
FC00
7E06
7E0F
7FBE
3FFE
1FFC
07F0
ENDCHAR

STARTCHAR eacute
ENCODING 233
SWIDTH 580 0
DWIDTH 18 0
BBX 16 24 1 0
BITMAP
00E0
01F0
03F0
07F0
0FC0
0E00
0000
07F0
1FF8
3FFC
7E7E
7C3E
7FFF
FFFF
FFFF
FC00
FC00
FC00
7E06
7E0F
7FBE
3FFE
1FFC
07F0
ENDCHAR

STARTCHAR ecircumflex
ENCODING 234
SWIDTH 580 0
DWIDTH 18 0
BBX 16 23 1 0
BITMAP
0180
03C0
07E0
0FF0
1E78
0000
07F0
1FF8
3FFC
7E7E
7C3E
7FFF
FFFF
FFFF
FC00
FC00
FC00
7E06
7E0F
7FBE
3FFE
1FFC
07F0
ENDCHAR

STARTCHAR edieresis
ENCODING 235
SWIDTH 580 0
DWIDTH 18 0
BBX 16 23 1 0
BITMAP
1818
3C3C
3C3C
3C3C
1818
0000
07F0
1FF8
3FFC
7E7E
7C3E
7FFF
FFFF
FFFF
FC00
FC00
FC00
7E06
7E0F
7FBE
3FFE
1FFC
07F0
ENDCHAR

STARTCHAR igrave
ENCODING 236
SWIDTH 360 0
DWIDTH 11 0
BBX 10 24 0 0
BITMAP
3800
7C00
7E00
7F00
1F80
0380
0000
0F00
FF00
FF00
FF00
3F00
1F00
1F00
1F00
1F00
1F00
1F00
1F00
1F00
3F80
FFC0
FFC0
FFC0
ENDCHAR

STARTCHAR iacute
ENCODING 237
SWIDTH 360 0
DWIDTH 11 0
BBX 10 24 0 0
BITMAP
0700
0F80
1F80
3F80
7E00
7000
0000
0F00
FF00
FF00
FF00
3F00
1F00
1F00
1F00
1F00
1F00
1F00
1F00
1F00
3F80
FFC0
FFC0
FFC0
ENDCHAR

STARTCHAR icircumflex
ENCODING 238
SWIDTH 360 0
DWIDTH 11 0
BBX 10 23 0 0
BITMAP
0C00
1E00
3F00
7F80
F3C0
0000
0F00
FF00
FF00
FF00
3F00
1F00
1F00
1F00
1F00
1F00
1F00
1F00
1F00
3F80
FFC0
FFC0
FFC0
ENDCHAR

STARTCHAR idieresis
ENCODING 239
SWIDTH 360 0
DWIDTH 11 0
BBX 12 23 -1 0
BITMAP
6060
F0F0
F0F0
F0F0
6060
0000
0780
7F80
7F80
7F80
1F80
0F80
0F80
0F80
0F80
0F80
0F80
0F80
0F80
1FC0
7FE0
7FE0
7FE0
ENDCHAR

STARTCHAR eth
ENCODING 240
SWIDTH 620 0
DWIDTH 20 0
BBX 18 25 1 0
BITMAP
0E0300
1F0F00
07FC00
03F000
03F000
0FF800
3CFC00
307E00
07FE00
1FFF00
3FFF00
7F3F80
7E1F80
7C0FC0
FC0FC0
FC0FC0
FC0FC0
FC0FC0
FC0FC0
7C0F80
7E1F80
7F3F80
3FFF00
1FFE00
07F800
ENDCHAR

STARTCHAR ntilde
ENCODING 241
SWIDTH 680 0
DWIDTH 21 0
BBX 20 22 0 0
BITMAP
038C00
07FE00
0FFC00
063800
000000
1C7E00
FFFF80
FFFF80
FFFFC0
3F8FC0
1F07C0
1F07C0
1F07C0
1F07C0
1F07C0
1F07C0
1F07C0
1F07C0
3F8FE0
FFDFF0
FFDFF0
FFDFF0
ENDCHAR

STARTCHAR ograve
ENCODING 242
SWIDTH 620 0
DWIDTH 20 0
BBX 18 24 1 0
BITMAP
038000
07C000
07E000
07F000
01F800
003800
000000
07F800
1FFE00
3FFF00
7F3F80
7E1F80
7C0F80
FC0FC0
FC0FC0
FC0FC0
FC0FC0
FC0FC0
7C0F80
7E1F80
7F3F80
3FFF00
1FFE00
07F800
ENDCHAR

STARTCHAR oacute
ENCODING 243
SWIDTH 620 0
DWIDTH 20 0
BBX 18 24 1 0
BITMAP
007000
00F800
01F800
03F800
07E000
070000
000000
07F800
1FFE00
3FFF00
7F3F80
7E1F80
7C0F80
FC0FC0
FC0FC0
FC0FC0
FC0FC0
FC0FC0
7C0F80
7E1F80
7F3F80
3FFF00
1FFE00
07F800
ENDCHAR

STARTCHAR ocircumflex
ENCODING 244
SWIDTH 620 0
DWIDTH 20 0
BBX 18 23 1 0
BITMAP
00C000
01E000
03F000
07F800
0F3C00
000000
07F800
1FFE00
3FFF00
7F3F80
7E1F80
7C0F80
FC0FC0
FC0FC0
FC0FC0
FC0FC0
FC0FC0
7C0F80
7E1F80
7F3F80
3FFF00
1FFE00
07F800
ENDCHAR

STARTCHAR otilde
ENCODING 245
SWIDTH 620 0
DWIDTH 20 0
BBX 18 22 1 0
BITMAP
071800
0FFC00
1FF800
0C7000
000000
07F800
1FFE00
3FFF00
7F3F80
7E1F80
7C0F80
FC0FC0
FC0FC0
FC0FC0
FC0FC0
FC0FC0
7C0F80
7E1F80
7F3F80
3FFF00
1FFE00
07F800
ENDCHAR

STARTCHAR odieresis
ENCODING 246
SWIDTH 620 0
DWIDTH 20 0
BBX 18 23 1 0
BITMAP
0C0C00
1E1E00
1E1E00
1E1E00
0C0C00
000000
07F800
1FFE00
3FFF00
7F3F80
7E1F80
7C0F80
FC0FC0
FC0FC0
FC0FC0
FC0FC0
FC0FC0
7C0F80
7E1F80
7F3F80
3FFF00
1FFE00
07F800
ENDCHAR

STARTCHAR divide
ENCODING 247
SWIDTH 600 0
DWIDTH 20 0
BBX 16 16 2 1
BITMAP
0380
07C0
07C0
07C0
0380
0000
FFFF
FFFF
FFFF
FFFF
0000
0380
07C0
07C0
07C0
0380
ENDCHAR

STARTCHAR oslash
ENCODING 248
SWIDTH 620 0
DWIDTH 20 0
BBX 18 19 1 -1
BITMAP
000700
07FE00
1FFE00
3FFF00
7F3F00
7E3F80
7C3F80
FC7FC0
FCEFC0
FCEFC0
FDCFC0
FD8FC0
7F8F80
7F1F80
3F3F80
3FFF00
1FFC00
1FF800
380000
ENDCHAR

STARTCHAR ugrave
ENCODING 249
SWIDTH 660 0
DWIDTH 21 0
BBX 20 24 0 0
BITMAP
01C000
03E000
03F000
03F800
00FC00
001C00
000000
0F03C0
FF3FC0
FF3FC0
FF3FC0
3F0FC0
1F07C0
1F07C0
1F07C0
1F07C0
1F07C0
1F07C0
1F07C0
1F0FC0
1FBFE0
1FFFF0
0FFFF0
07F7F0
ENDCHAR

STARTCHAR uacute
ENCODING 250
SWIDTH 660 0
DWIDTH 21 0
BBX 20 24 0 0
BITMAP
003800
007C00
00FC00
01FC00
03F000
038000
000000
0F03C0
FF3FC0
FF3FC0
FF3FC0
3F0FC0
1F07C0
1F07C0
1F07C0
1F07C0
1F07C0
1F07C0
1F07C0
1F0FC0
1FBFE0
1FFFF0
0FFFF0
07F7F0
ENDCHAR

STARTCHAR ucircumflex
ENCODING 251
SWIDTH 660 0
DWIDTH 21 0
BBX 20 23 0 0
BITMAP
006000
00F000
01F800
03FC00
079E00
000000
0F03C0
FF3FC0
FF3FC0
FF3FC0
3F0FC0
1F07C0
1F07C0
1F07C0
1F07C0
1F07C0
1F07C0
1F07C0
1F0FC0
1FBFE0
1FFFF0
0FFFF0
07F7F0
ENDCHAR

STARTCHAR udieresis
ENCODING 252
SWIDTH 660 0
DWIDTH 21 0
BBX 20 23 0 0
BITMAP
060600
0F0F00
0F0F00
0F0F00
060600
000000
0F03C0
FF3FC0
FF3FC0
FF3FC0
3F0FC0
1F07C0
1F07C0
1F07C0
1F07C0
1F07C0
1F07C0
1F07C0
1F0FC0
1FBFE0
1FFFF0
0FFFF0
07F7F0
ENDCHAR

STARTCHAR yacute
ENCODING 253
SWIDTH 620 0
DWIDTH 21 0
BBX 19 31 1 -7
BITMAP
000E00
001F00
003F00
007F00
00FC00
00E000
000000
FFDFE0
FFDFE0
FFDFE0
7F0FC0
3F0F80
1F0F00
1F8F00
0F9E00
0FDE00
0FDC00
07FC00
07F800
03F800
03F800
03F000
01F000
01E000
01E000
33C000
7FC000
FF8000
FF0000
7F0000
3C0000
ENDCHAR

STARTCHAR thorn
ENCODING 254
SWIDTH 640 0
DWIDTH 21 0
BBX 19 31 0 -7
BITMAP
0F0000
FF0000
FF0000
FF0000
3F0000
1F0000
1F0000
1F7F00
1FFF80
1FFFC0
1FDFC0
1F07E0
1F07E0
1F03E0
1F03E0
1F03E0
1F03E0
1F07E0
1F07E0
1F07C0
1FDFC0
1FFF80
1FFF00
1F7E00
1F0000
1F0000
1F0000
3F8000
FFE000
FFE000
FFE000
ENDCHAR

STARTCHAR ydieresis
ENCODING 255
SWIDTH 620 0
DWIDTH 21 0
BBX 19 30 1 -7
BITMAP
0C0C00
1E1E00
1E1E00
1E1E00
0C0C00
000000
FFDFE0
FFDFE0
FFDFE0
7F0FC0
3F0F80
1F0F00
1F9F00
0F9E00
0FDE00
0FDC00
07FC00
07F800
03F800
03F800
03F000
01F000
01E000
01E000
33C000
7FC000
FF8000
FF0000
7F0000
3C0000
ENDCHAR
ENDFONT
